<?xml version="1.0" encoding="UTF-8"?><svg id="Camada_1" xmlns="http://www.w3.org/2000/svg" viewBox="0 0 1644.69 264.18"><defs><style>.cls-1{fill:#000;}</style></defs><path class="cls-1" d="M713.33,42.07C688.71,8.15,644.25-2.13,598.1,.35c-46.8,2.53-79.38,12.44-87.71,15.58-5.2,1.96-4.53,6.41-4.58,9.11-.19,8.95-.89,32.11-.85,41.54,.02,4.15,5.12,6.1,9.4,4.58,17.09-6.06,48.55-15.68,73.87-17.75,27.32-2.21,64.45,0,74.7,15.52,4.88,7.39,5.14,18.66,5.7,30.18-17.06-1.54-42.28-3.7-67.39-2.34-19.55,1.05-56.97,2.68-79.02,14.43-17.92,9.54-28.45,18.23-34.04,34.35-4.5,13.01-5.72,28.6-4.29,41.34,3.28,29.05,13.37,43.51,26.99,53.58,21.52,15.92,48.64,24.31,104.74,23.08,74.67-1.62,94.31-25.77,104.22-42.9,16.86-29.18,13.93-75.27,13.41-103.53-.21-11.71-1.94-50.29-19.92-75.07m-95.74,171.01c-27.51,1.26-47.8,.15-60.88-6.31-8.7-4.28-15.05-14.14-15.63-25.32-.49-9.51-.35-14.41,3.98-20.05,9.67-12.6,34.95-15.3,60.94-16.31,17.53-.68,44.33,1.32,64.04,3.7-.16,19.03-1.41,38.12-5.38,46.48-7.05,14.84-32.15,17.13-47.07,17.81"/><path class="cls-1" d="M925.88,4.11c-37.62,0-75.28,4.76-99.09,28.18-23.81,23.41-32.99,58.6-32.99,101.72s8.19,77.72,32.05,101.13c23.81,23.36,62.45,29.04,100.03,29.04s75.09-4.79,98.9-28.21c23.8-23.4,33.18-58.84,33.18-101.96s-8.33-77.49-32.14-100.9c-23.8-23.41-62.31-29-99.93-29m57.06,192.16c-13.24,15.14-37.25,17.82-57.06,17.82s-43.77-2.66-57.01-17.75c-13.27-15.13-14.15-35.98-14.15-62.27s.86-46.55,14.1-61.69c13.24-15.14,34.55-17.77,57.06-17.77s43.82,2.63,57.06,17.77c13.24,15.13,14.1,35.46,14.1,61.69s-.87,47.08-14.1,62.21"/><path class="cls-1" d="M1640.56,8.73h-53.25c-2.28,0-4.13,1.81-4.13,4.04V255.72c0,2.2,1.86,4.03,4.13,4.03h53.25c2.26,0,4.13-1.82,4.13-4.03V12.77c0-2.23-1.87-4.04-4.13-4.04"/><path class="cls-1" d="M1392.85,4.56c-36.4,0-59.61,7.76-73.67,15.01h-9.76c-13.75-7.6-38-15.01-76.09-15.01-28.2,0-62.75,2.07-84.06,19.95-17.62,14.79-21.71,34.49-21.71,74.94V255.6c0,2.2,1.87,4.03,4.13,4.03h53.22c2.28,0,4.14-1.83,4.14-4.03v-.54s-.02-98.72-.02-127.96c0-23.2-.91-47.36,4.11-56.36,3.89-7.01,10.02-14.84,38.92-14.84,34.49,0,42.62,2.41,48.06,17.68,1.29,3.61,1.92,8.76,2.21,15.01V255.6c0,2.2,1.86,4.03,4.12,4.03h53.25c2.27,0,4.12-1.83,4.12-4.03V88.6c.29-6.26,.93-11.41,2.22-15.01,5.43-15.27,13.56-17.68,48.05-17.68,28.91,0,35.02,7.83,38.93,14.84,5,9,4.1,33.16,4.1,56.36,0,29.24-.02,127.96-.02,127.96v.54c0,2.2,1.87,4.03,4.15,4.03h53.22c2.26,0,4.12-1.83,4.12-4.03V108.96c0-41.97-1.37-63.46-21.08-81.78-21.67-20.16-56.49-22.61-84.69-22.61"/><path class="cls-1" d="M404.59,8.73h-53.25c-2.28,0-4.12,1.81-4.12,4.04V255.72c0,2.2,1.85,4.03,4.12,4.03h53.25c2.26,0,4.13-1.82,4.13-4.03V12.77c0-2.23-1.87-4.04-4.13-4.04"/><path class="cls-1" d="M180.77,132.17L275.37,15.07c2.06-2.54,.25-6.33-3.02-6.33h-68.2c-1.62,0-3.16,.77-4.14,2.05l-62.5,82.86L76.53,10.85c-.97-1.32-2.52-2.11-4.17-2.11H3.95c-3.26,0-5.07,3.78-3.03,6.32l95.76,119.29L.81,253.49c-1.96,2.56-.14,6.26,3.08,6.26H72.25c1.66,0,3.23-.8,4.2-2.15l63.86-82.55,60.49,82.59c.97,1.32,2.53,2.12,4.18,2.12h67.54c3.24,0,5.06-3.73,3.06-6.28l-94.81-121.3Z"/></svg>